# xmcd
#
# Track frame offsets:
#	150
#	13383
#	27104
#	41760
#	56097
#	69423
#	85375
#	96301
#	108378
#	121857
#	133851
#	147117
#	163206
#	175224
#
# Disc length: 2477 seconds
#
# Revision: 0
# Processed by: cddbd v1.5.2PL0 Copyright (c) Steve Scherf et al.
# Submitted via: dBpowerAMP V4.0
#
DISCID=c809ab0e
DTITLE=Trio Parada Dura - Alma Sertaneja - Volume 2
DYEAR=2002
DGENRE=Country
TTITLE0=Bobeou ... a gente pimba
TTITLE1=Fuscao preto
TTITLE2=Telefone mudo
TTITLE3=Nao va embora
TTITLE4=O doutor e a empregada
TTITLE5=O carro e a faculdade
TTITLE6=Casa de esquina
TTITLE7=Cruz pesada
TTITLE8=Droga de vida
TTITLE9=Grao de areia
TTITLE10=Cama vazia
TTITLE11=Passa la
TTITLE12=Distante dela
TTITLE13=Homem de pedra
EXTD=
EXTT0=
EXTT1=
EXTT2=
EXTT3=
EXTT4=
EXTT5=
EXTT6=
EXTT7=
EXTT8=
EXTT9=
EXTT10=
EXTT11=
EXTT12=
EXTT13=
PLAYORDER=
